<?xml version="1.0" standalone="no"?>
<!DOCTYPE svg PUBLIC "-//W3C//DTD SVG 20010904//EN"
 "http://www.w3.org/TR/2001/REC-SVG-20010904/DTD/svg10.dtd">
<svg version="1.0" xmlns="http://www.w3.org/2000/svg"
 width="256.000000pt" height="256.000000pt" viewBox="0 0 256.000000 256.000000"
 preserveAspectRatio="xMidYMid meet">

<g transform="translate(0.000000,256.000000) scale(0.100000,-0.100000)"
fill="#000000" stroke="none">
<path d="M308 1759 c-20 -10 -40 -24 -43 -30 -11 -16 81 -143 165 -228 405
-412 1010 -478 1495 -163 116 76 340 314 357 381 2 6 -16 22 -38 36 l-42 25
-43 -67 c-24 -37 -80 -104 -124 -149 -180 -183 -407 -290 -671 -316 -233 -24
-479 40 -693 179 -76 50 -240 214 -288 289 l-39 61 -36 -18z"/>
<path d="M265 1350 l-90 -90 35 -35 35 -35 90 90 90 90 -35 35 -35 35 -90 -90z"/>
<path d="M2170 1395 l-34 -35 89 -90 89 -90 33 32 c18 18 33 37 33 43 0 10
-160 175 -171 175 -3 0 -20 -16 -39 -35z"/>
<path d="M737 1138 c-62 -148 -86 -212 -81 -219 6 -10 82 -34 88 -28 2 2 24
55 49 117 l46 113 -25 9 c-50 19 -71 22 -77 8z"/>
<path d="M1758 1131 c-21 -9 -38 -18 -38 -21 0 -16 89 -225 97 -227 16 -6 83
27 83 40 -1 21 -87 221 -96 223 -5 1 -26 -5 -46 -15z"/>
<path d="M1227 1034 c-4 -4 -7 -63 -7 -131 l0 -123 55 0 56 0 -3 128 -3 127
-45 3 c-25 2 -49 0 -53 -4z"/>
</g>
</svg>
