<?xml version="1.0" standalone="no"?>
<!DOCTYPE svg PUBLIC "-//W3C//DTD SVG 20010904//EN"
 "http://www.w3.org/TR/2001/REC-SVG-20010904/DTD/svg10.dtd">
<svg version="1.0" xmlns="http://www.w3.org/2000/svg"
 width="256.000000pt" height="256.000000pt" viewBox="0 0 256.000000 256.000000"
 preserveAspectRatio="xMidYMid meet">

<g transform="translate(0.000000,256.000000) scale(0.100000,-0.100000)"
fill="#000000" stroke="none">
<path d="M1230 1945 l0 -125 55 0 55 0 0 125 0 125 -55 0 -55 0 0 -125z"/>
<path d="M725 1970 c-11 -4 -32 -13 -47 -18 l-26 -11 42 -103 c23 -57 45 -111
49 -120 6 -16 9 -16 47 1 22 10 43 20 46 23 4 5 -84 240 -90 237 0 0 -10 -4
-21 -9z"/>
<path d="M1768 1852 l-46 -117 36 -17 c21 -9 42 -17 48 -17 11 -1 109 227 102
234 -5 5 -80 35 -87 35 -3 0 -27 -53 -53 -118z"/>
<path d="M1180 1708 c-282 -21 -577 -169 -766 -382 -64 -73 -154 -204 -154
-224 0 -8 19 -44 43 -80 161 -248 418 -430 714 -504 75 -19 115 -23 268 -23
153 0 193 4 268 23 293 73 534 242 706 492 28 41 51 81 51 89 0 9 -24 52 -54
96 -172 257 -438 434 -741 495 -111 22 -211 28 -335 18z m-278 -197 c-182
-175 -230 -437 -121 -659 18 -37 60 -94 98 -134 75 -80 70 -82 -68 -15 -147
71 -303 204 -405 345 l-38 52 45 63 c84 117 207 230 335 304 38 22 190 93 201
93 2 0 -19 -22 -47 -49z m487 38 c206 -47 353 -233 352 -448 0 -218 -135 -391
-348 -446 -309 -81 -607 191 -562 511 25 179 173 342 346 383 52 12 159 13
212 0z m348 -39 c96 -44 195 -112 284 -197 82 -79 169 -189 169 -214 0 -45
-185 -241 -301 -319 -60 -42 -236 -130 -257 -130 -6 0 13 22 41 49 152 143
210 376 143 574 -32 96 -62 146 -135 221 -62 65 -57 66 56 16z"/>
<path d="M1205 1397 c-68 -23 -101 -44 -148 -97 -53 -59 -77 -121 -77 -200 0
-81 24 -142 81 -204 64 -70 129 -99 224 -99 163 0 291 120 303 284 6 91 -16
154 -79 223 -79 86 -206 125 -304 93z m75 -140 c0 -17 -9 -26 -35 -35 -42 -16
-85 -65 -85 -98 0 -19 -5 -24 -25 -24 -65 0 3 136 85 169 42 17 60 13 60 -12z"/>
<path d="M205 1638 l-36 -31 92 -93 93 -94 33 32 c18 18 33 37 33 43 0 11
-161 175 -172 175 -4 0 -24 -14 -43 -32z"/>
<path d="M2217 1572 l-87 -88 33 -32 c18 -18 37 -32 43 -32 5 0 49 40 97 88
l87 88 -33 32 c-18 18 -37 32 -43 32 -5 0 -49 -40 -97 -88z"/>
</g>
</svg>
